<svg width="108" height="11" viewBox="0 0 108 11" fill="none" xmlns="http://www.w3.org/2000/svg">
<path d="M9.50988 8.67568C9.95479 8.67568 10.1772 8.89814 10.1772 9.34304V10.0104H0L7.27145 1.33472H1.00104C0.556134 1.33472 0.33368 1.11227 0.33368 0.66736V0H10.3441L3.07264 8.67568H9.50988Z" fill="white"/>
<path d="M17.455 0L22.1265 10.0104H21.1394C20.6945 10.0104 20.3608 9.78795 20.1522 9.34304L19.3736 7.67464H13.8679L13.0893 9.34304C12.8808 9.78795 12.5471 10.0104 12.1022 10.0104H11.1151L15.7866 0H17.455ZM14.4797 6.33992H18.7619L16.6208 1.76572L14.4797 6.33992Z" fill="white"/>
<path d="M32.3876 0H33.3886V10.0104H32.3876C31.9427 10.0104 31.7202 9.78795 31.7202 9.34304V5.67256H25.0466V9.34304C25.0466 9.78795 24.8242 10.0104 24.3793 10.0104H23.3782V0H24.3793C24.8242 0 25.0466 0.222453 25.0466 0.66736V4.33784H31.7202V0.66736C31.7202 0.222453 31.9427 0 32.3876 0Z" fill="white"/>
<path d="M36.341 0C36.7859 0 37.0084 0.222453 37.0084 0.66736V10.0104H36.0074C35.5625 10.0104 35.34 9.78795 35.34 9.34304V0H36.341Z" fill="white"/>
<path d="M45.6252 0C47.961 0 49.1289 1.16788 49.1289 3.50364V6.50676C49.1289 8.84252 47.961 10.0104 45.6252 10.0104H38.9516V0H45.6252ZM47.4605 6.50676V3.50364C47.4605 2.05769 46.7375 1.33472 45.2915 1.33472H40.62V8.67568H45.2915C46.7375 8.67568 47.4605 7.95271 47.4605 6.50676Z" fill="white"/>
<path d="M62.7911 0C64.6819 0 65.6273 0.945427 65.6273 2.83628C65.6273 4.72714 64.6819 5.67256 62.7911 5.67256H57.619V9.34304C57.619 9.78795 57.3966 10.0104 56.9517 10.0104H55.9506V0H62.7911ZM62.4574 4.33784C63.4584 4.33784 63.9589 3.83732 63.9589 2.83628C63.9589 1.83524 63.4584 1.33472 62.4574 1.33472H57.619V4.33784H62.4574Z" fill="white"/>
<path d="M68.0852 0C68.5301 0 68.7525 0.222453 68.7525 0.66736V10.0104H67.7515C67.3066 10.0104 67.0842 9.78795 67.0842 9.34304V0H68.0852Z" fill="white"/>
<path d="M77.2442 5.67256L80.873 10.0104H79.58C79.1351 10.0104 78.7319 9.78795 78.3565 9.34304L75.2839 5.67256H72.3642V9.34304C72.3642 9.78795 72.1417 10.0104 71.6968 10.0104H70.6958V0H77.5362C79.4271 0 80.3725 0.945427 80.3725 2.83628C80.3725 4.72714 79.4271 5.67256 77.5362 5.67256H77.2442ZM72.3642 4.33784H77.2025C78.2036 4.33784 78.7041 3.83732 78.7041 2.83628C78.7041 1.83524 78.2036 1.33472 77.2025 1.33472H72.3642V4.33784Z" fill="white"/>
<path d="M87.6913 0L92.3628 10.0104H91.3757C90.9308 10.0104 90.5971 9.78795 90.3885 9.34304L89.6099 7.67464H84.1042L83.3256 9.34304C83.1171 9.78795 82.7834 10.0104 82.3385 10.0104H81.3514L86.0229 0H87.6913ZM84.716 6.33992H88.9982L86.8571 1.76572L84.716 6.33992Z" fill="white"/>
<path d="M102.624 0H103.625V10.0104H101.957L95.2829 2.0716V9.34304C95.2829 9.78795 95.0605 10.0104 94.6156 10.0104H93.6145V0H95.2829L101.957 7.93881V0.66736C101.957 0.222453 102.179 0 102.624 0Z" fill="white"/>
<path d="M106.577 0C107.022 0 107.245 0.222453 107.245 0.66736V10.0104H106.244C105.799 10.0104 105.576 9.78795 105.576 9.34304V0H106.577Z" fill="white"/>
</svg>
